<svg width="100" height="100" viewBox="0 0 100 100" fill="none" xmlns="http://www.w3.org/2000/svg">
<path opacity="0.4" fill-rule="evenodd" clip-rule="evenodd" d="M88.3542 10.7367C100.597 23.3388 94.4145 42.4441 87.3902 58.1627C79.2417 76.3973 69.7906 98.5052 50.0088 96.5449C26.7928 94.2443 7.08045 73.7523 4.79192 49.9776C2.84233 29.7238 24.0019 19.5853 41.7965 11.229C57.2146 3.98864 76.0514 -1.92767 88.3542 10.7367Z" fill="url(#paint0_linear_54_404)"/>
<path d="M53.1592 79.8077L46.4861 53.1154H52.3784L59.0515 79.8077H53.1592Z" fill="#A4A2A9" stroke="#1D1737"/>
<path d="M15.1919 22.1538C15.1919 20.1359 16.8278 18.5 18.8457 18.5H76.9996C79.0176 18.5 80.6534 20.1359 80.6534 22.1538V62.3077C80.6534 64.3257 79.0176 65.9615 76.9996 65.9615H18.8457C16.8278 65.9615 15.1919 64.3257 15.1919 62.3077V22.1538Z" fill="#A4A2A9" stroke="#1D1737"/>
<path d="M34.0247 79.8077L40.6977 53.1154H49.6093L56.2823 79.8077H34.0247ZM45.1535 71.1154C47.3414 71.1154 49.115 69.3417 49.115 67.1538C49.115 64.9659 47.3414 63.1923 45.1535 63.1923C42.9656 63.1923 41.192 64.9659 41.192 67.1538C41.192 69.3417 42.9656 71.1154 45.1535 71.1154Z" fill="#FBFBFB" stroke="#1D1737"/>
<path d="M54.5 59.5385H38.5769L36.1538 69.2308H42.3843C41.9498 68.6522 41.6923 67.9331 41.6923 67.1538C41.6923 65.2421 43.2421 63.6923 45.1538 63.6923C47.0656 63.6923 48.6153 65.2421 48.6153 67.1538C48.6153 67.9331 48.3578 68.6522 47.9233 69.2308H56.923L54.5 59.5385Z" fill="#1D1737" fill-opacity="0.1"/>
<path d="M12.4229 22.1538C12.4229 20.1359 14.0587 18.5 16.0767 18.5H74.2306C76.2485 18.5 77.8844 20.1359 77.8844 22.1538V62.3077C77.8844 64.3257 76.2485 65.9615 74.2306 65.9615H16.0767C14.0587 65.9615 12.4229 64.3257 12.4229 62.3077V22.1538Z" fill="#FBFBFB" stroke="#1D1737"/>
<path d="M11.9229 22.1538C11.9229 19.8597 13.7826 18 16.0767 18H74.2306C76.5247 18 78.3844 19.8597 78.3844 22.1538V62.3077C78.3844 64.6018 76.5247 66.4615 74.2306 66.4615H16.0767C13.7826 66.4615 11.9229 64.6018 11.9229 62.3077V22.1538Z" fill="#1D1737" fill-opacity="0.1"/>
<path d="M15.1919 23.8154C15.1919 22.3633 16.2516 21.2692 17.4611 21.2692H72.8457C74.0552 21.2692 75.115 22.3633 75.115 23.8154V55.8C75.115 57.2521 74.0552 58.3461 72.8457 58.3461H17.4611C16.2516 58.3461 15.1919 57.2521 15.1919 55.8V23.8154Z" fill="#FBFBFB" stroke="#1D1737"/>
<path d="M31.1152 78.923C31.1152 77.6698 32.1312 76.6538 33.3845 76.6538H62.4614C63.7146 76.6538 64.7306 77.6698 64.7306 78.923V79.8077H31.1152V78.923Z" fill="#A4A2A9" stroke="#1D1737"/>
<path d="M28.3457 78.923C28.3457 77.6698 29.3617 76.6538 30.6149 76.6538H59.6919C60.9451 76.6538 61.9611 77.6698 61.9611 78.923V79.8077H28.3457V78.923Z" fill="#FBFBFB" stroke="#1D1737"/>
<path d="M36.7278 47.8873C35.9534 47.1128 35.9534 45.8572 36.7278 45.0827L50.7748 31.0357C51.5493 30.2612 52.805 30.2612 53.5795 31.0357C54.354 31.8102 54.354 33.0659 53.5795 33.8403L39.5325 47.8873C38.758 48.6618 37.5023 48.6618 36.7278 47.8873ZM46.3851 48.7653C45.6107 47.9908 45.6107 46.7351 46.3851 45.9606L51.6528 40.693C52.4273 39.9185 53.6829 39.9185 54.4574 40.693C55.2319 41.4675 55.2319 42.7232 54.4574 43.4977L49.1898 48.7653C48.4153 49.5398 47.1596 49.5398 46.3851 48.7653ZM35.8499 38.23C35.0754 37.4555 35.0754 36.1999 35.8499 35.4254L41.1175 30.1578C41.892 29.3833 43.1477 29.3833 43.9222 30.1578C44.6967 30.9322 44.6967 32.1879 43.9222 32.9624L38.6545 38.23C37.8801 39.0045 36.6244 39.0045 35.8499 38.23Z" fill="url(#paint1_linear_54_404)" stroke="#1D1737"/>
<path d="M30.6152 66.4615H16.0767C13.7826 66.4615 11.9229 64.6018 11.9229 62.3077V36.288C12.3469 36.1028 12.8152 36 13.3075 36H27.1536C29.0654 36 30.6152 37.5498 30.6152 39.4615V66.4615Z" fill="#1D1737" fill-opacity="0.1"/>
<path d="M7.57715 42.2308C7.57715 40.5952 8.90307 39.2692 10.5387 39.2692H24.3848C26.0205 39.2692 27.3464 40.5952 27.3464 42.2308V76.8461C27.3464 78.4818 26.0205 79.8077 24.3848 79.8077H10.5387C8.90308 79.8077 7.57715 78.4818 7.57715 76.8461V42.2308Z" fill="#A4A2A9" stroke="#1D1737"/>
<path d="M5.5 42.2308C5.5 40.5952 6.82593 39.2692 8.46154 39.2692H22.3077C23.9433 39.2692 25.2692 40.5952 25.2692 42.2308V76.8461C25.2692 78.4818 23.9433 79.8077 22.3077 79.8077H8.46154C6.82593 79.8077 5.5 78.4818 5.5 76.8461V42.2308Z" fill="#FBFBFB" stroke="#1D1737"/>
<path d="M19.5386 80.3077H22.3078C24.2196 80.3077 25.7693 78.7579 25.7693 76.8461V42.2308C25.7693 40.319 24.2196 38.7692 22.3078 38.7692H19.5386C21.4503 38.7692 23.0001 40.319 23.0001 42.2308V76.8461C23.0001 78.7579 21.4503 80.3077 19.5386 80.3077Z" fill="#1D1737" fill-opacity="0.1"/>
<path d="M10.6924 39.2692H20.077V39.4615C20.077 40.3324 19.371 41.0385 18.5001 41.0385H12.2693C11.3984 41.0385 10.6924 40.3324 10.6924 39.4615V39.2692Z" fill="#1D1737" stroke="#1D1737"/>
<rect x="11.9229" y="77.8846" width="6.92308" height="0.692308" rx="0.346154" fill="#1D1737"/>
<path d="M78.3272 21.4615C78.365 21.6867 78.3846 21.918 78.3846 22.1539V62.3077C78.3846 64.6018 76.5249 66.4615 74.2308 66.4615H50V24.2308C50 22.7014 51.2398 21.4615 52.7692 21.4615H78.3272Z" fill="#1D1737" fill-opacity="0.1"/>
<path d="M56.7305 27.6923C56.7305 26.4391 57.7464 25.4231 58.9997 25.4231H92.2305C93.4837 25.4231 94.4997 26.4391 94.4997 27.6923V77.5385C94.4997 78.7917 93.4837 79.8077 92.2305 79.8077H58.9997C57.7464 79.8077 56.7305 78.7917 56.7305 77.5385V27.6923Z" fill="#A4A2A9" stroke="#1D1737"/>
<path d="M53.9614 27.6923C53.9614 26.4391 54.9774 25.4231 56.2307 25.4231H89.4614C90.7147 25.4231 91.7307 26.4391 91.7307 27.6923V77.5385C91.7307 78.7917 90.7147 79.8077 89.4614 79.8077H56.2307C54.9774 79.8077 53.9614 78.7917 53.9614 77.5385V27.6923Z" fill="#FBFBFB" stroke="#1D1737"/>
<path d="M86 80.3077H89.4615C90.9909 80.3077 92.2308 79.0679 92.2308 77.5385V27.6923C92.2308 26.1629 90.9909 24.9231 89.4615 24.9231H86C87.5294 24.9231 88.7692 26.1629 88.7692 27.6923V77.5385C88.7692 79.0679 87.5294 80.3077 86 80.3077Z" fill="#1D1737" fill-opacity="0.1"/>
<path d="M64.6924 25.4231H81.0001V25.6154C81.0001 26.4863 80.2941 27.1923 79.4232 27.1923H66.2693C65.3984 27.1923 64.6924 26.4863 64.6924 25.6154V25.4231Z" fill="#1D1737" stroke="#1D1737"/>
<rect x="65.9229" y="77.8846" width="13.8462" height="0.692308" rx="0.346154" fill="#1D1737"/>
<path d="M65.5374 57.8472C64.9246 57.2343 64.9246 56.2407 65.5374 55.6278L77.2433 43.922C77.8561 43.3092 78.8498 43.3092 79.4626 43.922C80.0755 44.5349 80.0755 45.5285 79.4626 46.1414L67.7568 57.8472C67.1439 58.4601 66.1503 58.4601 65.5374 57.8472ZM73.5852 58.5788C72.9723 57.966 72.9723 56.9723 73.5852 56.3595L77.9749 51.9698C78.5877 51.3569 79.5814 51.3569 80.1942 51.9698C80.8071 52.5827 80.8071 53.5763 80.1942 54.1891L75.8046 58.5788C75.1917 59.1917 74.1981 59.1917 73.5852 58.5788ZM64.8058 49.7994C64.193 49.1866 64.193 48.193 64.8058 47.5801L69.1955 43.1904C69.8084 42.5776 70.802 42.5776 71.4149 43.1904C72.0277 43.8033 72.0277 44.7969 71.4149 45.4098L67.0252 49.7994C66.4123 50.4123 65.4187 50.4123 64.8058 49.7994Z" fill="url(#paint2_linear_54_404)" stroke="#1D1737"/>
<path d="M9.88514 65.0378C9.43391 64.5865 9.43391 63.855 9.88514 63.4037L19.2498 54.0391C19.701 53.5878 20.4326 53.5878 20.8839 54.0391C21.3351 54.4903 21.3351 55.2219 20.8839 55.6731L11.5192 65.0378C11.068 65.489 10.3364 65.489 9.88514 65.0378ZM16.3233 65.6231C15.8721 65.1719 15.8721 64.4403 16.3233 63.989L19.8351 60.4773C20.2863 60.0261 21.0179 60.0261 21.4692 60.4773C21.9204 60.9285 21.9204 61.6601 21.4692 62.1113L17.9574 65.6231C17.5062 66.0743 16.7746 66.0743 16.3233 65.6231ZM9.29985 58.5996C8.84862 58.1483 8.84862 57.4168 9.29985 56.9655L12.8116 53.4538C13.2628 53.0025 13.9944 53.0025 14.4457 53.4538C14.8969 53.905 14.8969 54.6366 14.4457 55.0878L10.9339 58.5996C10.4827 59.0508 9.75108 59.0508 9.29985 58.5996Z" fill="url(#paint3_linear_54_404)" stroke="#1D1737"/>
<defs>
<linearGradient id="paint0_linear_54_404" x1="4.6665" y1="3.33331" x2="95.3332" y2="3.33331" gradientUnits="userSpaceOnUse">
<stop stop-color="#FACF1A"/>
<stop offset="0.142857" stop-color="#FFBE1C"/>
<stop offset="0.285714" stop-color="#FFAC26"/>
<stop offset="0.428571" stop-color="#FF9B31"/>
<stop offset="0.571429" stop-color="#FF893C"/>
<stop offset="0.714286" stop-color="#FF7848"/>
<stop offset="0.857143" stop-color="#FF6853"/>
<stop offset="1" stop-color="#FF595E"/>
</linearGradient>
<linearGradient id="paint1_linear_54_404" x1="34.769" y1="29.0769" x2="55.5383" y2="29.0769" gradientUnits="userSpaceOnUse">
<stop stop-color="#FACF1A"/>
<stop offset="0.142857" stop-color="#FFBE1C"/>
<stop offset="0.285714" stop-color="#FFAC26"/>
<stop offset="0.428571" stop-color="#FF9B31"/>
<stop offset="0.571429" stop-color="#FF893C"/>
<stop offset="0.714286" stop-color="#FF7848"/>
<stop offset="0.857143" stop-color="#FF6853"/>
<stop offset="1" stop-color="#FF595E"/>
</linearGradient>
<linearGradient id="paint2_linear_54_404" x1="63.8462" y1="42.2308" x2="81.1539" y2="42.2308" gradientUnits="userSpaceOnUse">
<stop stop-color="#FACF1A"/>
<stop offset="0.142857" stop-color="#FFBE1C"/>
<stop offset="0.285714" stop-color="#FFAC26"/>
<stop offset="0.428571" stop-color="#FF9B31"/>
<stop offset="0.571429" stop-color="#FF893C"/>
<stop offset="0.714286" stop-color="#FF7848"/>
<stop offset="0.857143" stop-color="#FF6853"/>
<stop offset="1" stop-color="#FF595E"/>
</linearGradient>
<linearGradient id="paint3_linear_54_404" x1="8.46143" y1="52.6154" x2="22.3076" y2="52.6154" gradientUnits="userSpaceOnUse">
<stop stop-color="#FACF1A"/>
<stop offset="0.142857" stop-color="#FFBE1C"/>
<stop offset="0.285714" stop-color="#FFAC26"/>
<stop offset="0.428571" stop-color="#FF9B31"/>
<stop offset="0.571429" stop-color="#FF893C"/>
<stop offset="0.714286" stop-color="#FF7848"/>
<stop offset="0.857143" stop-color="#FF6853"/>
<stop offset="1" stop-color="#FF595E"/>
</linearGradient>
</defs>
</svg>
