<svg width="100" height="100" viewBox="0 0 100 100" fill="none" xmlns="http://www.w3.org/2000/svg">
<path opacity="0.4" d="M9.44738 40.39C-2.07033 -14.418 58.809 13.4754 62.9225 15.9222C67.0359 18.3689 109.816 33.539 83.4899 64.8579C50.5821 104.006 23.8445 108.9 9.44738 40.39Z" fill="url(#paint0_linear_18_802)"/>
<path fill-rule="evenodd" clip-rule="evenodd" d="M87.7961 20.6449C88.5445 21.637 88.3469 23.0478 87.3549 23.7962L44.6049 56.0462C43.6129 56.7946 42.202 56.597 41.4537 55.605C40.7053 54.613 40.9028 53.2021 41.8948 52.4538L84.6448 20.2038C85.6369 19.4554 87.0477 19.6529 87.7961 20.6449Z" fill="#A4A2A9" stroke="#1D1737" stroke-linecap="round" stroke-linejoin="round"/>
<path fill-rule="evenodd" clip-rule="evenodd" d="M12.2607 28.8227C13.0489 27.8621 14.4666 27.7223 15.4273 28.5105L44.6773 52.5105C45.6379 53.2988 45.7777 54.7165 44.9895 55.6772C44.2013 56.6378 42.7835 56.7776 41.8229 55.9894L12.5729 31.9894C11.6122 31.2011 11.4724 29.7834 12.2607 28.8227Z" fill="#A4A2A9" stroke="#1D1737" stroke-linecap="round" stroke-linejoin="round"/>
<path fill-rule="evenodd" clip-rule="evenodd" d="M44.7962 52.6155C45.6989 53.4694 45.7385 54.8935 44.8846 55.7962L18.6346 83.5462C17.7806 84.449 16.3565 84.4885 15.4538 83.6346C14.5511 82.7806 14.5115 81.3566 15.3655 80.4538L41.6155 52.7038C42.4694 51.8011 43.8935 51.7615 44.7962 52.6155Z" fill="#A4A2A9" stroke="#1D1737" stroke-linecap="round" stroke-linejoin="round"/>
<path fill-rule="evenodd" clip-rule="evenodd" d="M41.2209 53.2778C41.7579 52.1572 43.1017 51.684 44.2223 52.221L80.2223 69.471C81.3429 70.0079 81.8161 71.3517 81.2791 72.4723C80.7422 73.593 79.3984 74.0661 78.2778 73.5291L42.2778 56.2791C41.1571 55.7422 40.684 54.3984 41.2209 53.2778Z" fill="#A4A2A9" stroke="#1D1737" stroke-linecap="round" stroke-linejoin="round"/>
<circle cx="43.25" cy="54.25" r="18.75" fill="#FBFBFB" stroke="#1D1737"/>
<circle cx="86" cy="22" r="9" fill="#FBFBFB" stroke="#1D1737"/>
<circle cx="14" cy="30.25" r="9" fill="#FBFBFB" stroke="#1D1737"/>
<circle cx="79.25" cy="71.5" r="9" fill="#FBFBFB" stroke="#1D1737"/>
<circle cx="17" cy="82" r="6" fill="#FBFBFB" stroke="#1D1737"/>
<path d="M83.674 28.7348C88.6782 28.7348 92.7348 24.6782 92.7348 19.674C92.7348 17.7505 92.1354 15.967 91.1132 14.5C93.4626 16.1371 95 18.8586 95 21.9392C95 26.9434 90.9433 31 85.9392 31C82.8586 31 80.1371 29.4626 78.5 27.1133C79.967 28.1354 81.7505 28.7348 83.674 28.7348Z" fill="#1D1737" fill-opacity="0.1"/>
<path d="M11.674 36.9848C16.6782 36.9848 20.7348 32.9282 20.7348 27.924C20.7348 26.0005 20.1354 24.217 19.1132 22.75C21.4626 24.3871 23 27.1086 23 30.1892C23 35.1934 18.9433 39.25 13.9392 39.25C10.8586 39.25 8.13708 37.7126 6.5 35.3632C7.96695 36.3854 9.75049 36.9848 11.674 36.9848Z" fill="#1D1737" fill-opacity="0.1"/>
<path d="M76.924 78.2349C81.9282 78.2349 85.9848 74.1782 85.9848 69.1741C85.9848 67.2505 85.3854 65.467 84.3632 64.0001C86.7126 65.6371 88.25 68.3587 88.25 71.4393C88.25 76.4434 84.1933 80.5001 79.1892 80.5001C76.1086 80.5001 73.3871 78.9627 71.75 76.6133C73.217 77.6355 75.0005 78.2349 76.924 78.2349Z" fill="#1D1737" fill-opacity="0.1"/>
<path d="M15.2777 86.4555C18.6896 86.4555 21.4555 83.6896 21.4555 80.2777C21.4555 78.9662 21.0469 77.7502 20.3499 76.75C21.9518 77.8662 23 79.7218 23 81.8222C23 85.2341 20.2341 88 16.8222 88C14.7218 88 12.8662 86.9518 11.75 85.3499C12.7502 86.0469 13.9662 86.4555 15.2777 86.4555Z" fill="#1D1737" fill-opacity="0.1"/>
<circle cx="43.25" cy="54.25" r="9.75" fill="url(#paint1_linear_18_802)" stroke="#1D1737"/>
<path d="M39.9479 69.8497C50.3871 69.8497 58.8497 61.387 58.8497 50.9478C58.8497 46.531 57.3347 42.4679 54.796 39.25C59.1836 42.7114 62 48.0759 62 54.0981C62 64.5373 53.5374 73 43.0982 73C37.0759 73 31.7114 70.1836 28.25 65.796C31.4679 68.3347 35.531 69.8497 39.9479 69.8497Z" fill="#1D1737" fill-opacity="0.1"/>
<defs>
<linearGradient id="paint0_linear_18_802" x1="8" y1="6.66666" x2="92" y2="6.66666" gradientUnits="userSpaceOnUse">
<stop stop-color="#FACF1A"/>
<stop offset="0.142857" stop-color="#FFBE1C"/>
<stop offset="0.285714" stop-color="#FFAC26"/>
<stop offset="0.428571" stop-color="#FF9B31"/>
<stop offset="0.571429" stop-color="#FF893C"/>
<stop offset="0.714286" stop-color="#FF7848"/>
<stop offset="0.857143" stop-color="#FF6853"/>
<stop offset="1" stop-color="#FF595E"/>
</linearGradient>
<linearGradient id="paint1_linear_18_802" x1="33.5" y1="44.5" x2="53" y2="44.5" gradientUnits="userSpaceOnUse">
<stop stop-color="#FACF1A"/>
<stop offset="0.142857" stop-color="#FFBE1C"/>
<stop offset="0.285714" stop-color="#FFAC26"/>
<stop offset="0.428571" stop-color="#FF9B31"/>
<stop offset="0.571429" stop-color="#FF893C"/>
<stop offset="0.714286" stop-color="#FF7848"/>
<stop offset="0.857143" stop-color="#FF6853"/>
<stop offset="1" stop-color="#FF595E"/>
</linearGradient>
</defs>
</svg>
