<svg width="100" height="100" viewBox="0 0 100 100" fill="none" xmlns="http://www.w3.org/2000/svg">
<path opacity="0.4" fill-rule="evenodd" clip-rule="evenodd" d="M49.4354 6.66841C65.2356 6.76025 83.266 10.7369 88.2066 29.2642C93.1845 47.931 80.8035 64.6821 68.0361 76.4208C54.6002 88.7742 37.6491 99.9911 23.6616 88.6088C8.13446 75.9737 2.79234 50.2079 9.5239 28.8068C15.3606 10.2506 33.3107 6.57469 49.4354 6.66841Z" fill="url(#paint0_linear_31_192)"/>
<path opacity="0.4" fill-rule="evenodd" clip-rule="evenodd" d="M84.8782 70.6672C88.2737 70.6308 91.3421 72.5565 92.5176 75.6177C93.8618 79.118 93.7524 83.3919 90.6023 85.5732C87.4788 87.736 83.285 86.3982 80.2685 84.0994C77.6635 82.1143 76.7051 78.8101 77.7463 75.7761C78.773 72.7845 81.6002 70.7024 84.8782 70.6672Z" fill="url(#paint1_linear_31_192)"/>
<path d="M88.0423 75.4856C90.0138 69.4034 90.5053 62.9367 89.4758 56.6253C88.4462 50.3138 85.9255 44.3409 82.124 39.2048C78.3226 34.0688 73.3506 29.9188 67.6232 27.1012C61.8958 24.2836 55.5791 22.8802 49.2004 23.008C42.8216 23.1359 36.566 24.7913 30.9555 27.8361C25.345 30.881 20.5425 35.2269 16.9489 40.5111C13.3553 45.7954 11.0748 51.8646 10.2978 58.2122C9.52075 64.5598 10.2698 71.0016 12.4823 77L50 63.0954L88.0423 75.4856Z" fill="#1D1737" fill-opacity="0.1"/>
<path d="M85.0406 73.4669C86.9162 67.6806 87.399 61.5314 86.4495 55.5222C85.5 49.513 83.1452 43.8144 79.5776 38.8922C76.0099 33.9701 71.3308 29.9642 65.9227 27.2021C60.5146 24.4399 54.5312 23 48.4615 23C42.3919 23 36.4084 24.4399 31.0004 27.2021C25.5923 29.9642 20.9131 33.9701 17.3455 38.8922C13.7779 43.8144 11.423 49.513 10.4735 55.5222C9.52403 61.5314 10.0068 67.6806 11.8824 73.4669L48.4615 61.5533L85.0406 73.4669Z" fill="#FBFBFB" stroke="#1D1737"/>
<path fill-rule="evenodd" clip-rule="evenodd" d="M38.5925 35.6176C44.2083 33.4704 50.3685 33.213 56.143 34.8842C61.9176 36.5554 66.993 40.0644 70.6029 44.8814C71.1132 45.5624 70.9762 46.5291 70.2968 47.0407C69.6175 47.5522 68.653 47.4148 68.1427 46.7339C64.9339 42.452 60.4225 39.3329 55.2895 37.8474C50.1566 36.3619 44.6809 36.5907 39.6891 38.4993C34.6973 40.4079 30.4605 43.8925 27.6183 48.4272C24.7762 52.9619 23.4831 58.3003 23.9341 63.6365C24.0059 64.4852 23.3777 65.2315 22.5311 65.3034C21.6844 65.3753 20.9399 64.7456 20.8682 63.897C20.3607 57.8937 21.8155 51.888 25.0129 46.7865C28.2103 41.685 32.9767 37.7647 38.5925 35.6176Z" fill="url(#paint2_linear_31_192)" stroke="#1D1737" stroke-linecap="round" stroke-linejoin="round"/>
<path fill-rule="evenodd" clip-rule="evenodd" d="M40.5362 43.1467C44.2142 41.5556 48.284 41.1082 52.2186 41.8625C56.1531 42.6168 59.771 44.5381 62.6036 47.3774C63.2044 47.9796 63.2044 48.9561 62.6036 49.5583C62.0028 50.1605 61.0286 50.1605 60.4278 49.5583C58.0311 47.1558 54.9698 45.5301 51.6405 44.8918C48.3113 44.2536 44.8676 44.6321 41.7555 45.9785C38.6434 47.3248 36.0064 49.5769 34.186 52.443C32.3656 55.3091 31.4458 58.6571 31.5457 62.0533C31.5707 62.9046 30.9026 63.6151 30.0533 63.6402C29.204 63.6653 28.4952 62.9955 28.4701 62.1442C28.352 58.1305 29.4391 54.1738 31.5904 50.7866C33.7418 47.3994 36.8583 44.7378 40.5362 43.1467Z" fill="url(#paint3_linear_31_192)" stroke="#1D1737" stroke-linecap="round" stroke-linejoin="round"/>
<path fill-rule="evenodd" clip-rule="evenodd" d="M47.0495 49.2977C48.8348 49.091 50.6436 49.2787 52.3488 49.8477C53.155 50.1167 53.591 50.9899 53.3226 51.798C53.0543 52.6061 52.1832 53.0431 51.377 52.7741C50.0981 52.3473 48.7415 52.2065 47.4025 52.3616C46.0635 52.5166 44.7746 52.9636 43.6264 53.6714C42.4782 54.3791 41.4986 55.3303 40.7564 56.4581C40.0141 57.5859 39.5273 58.8629 39.3301 60.1995C39.2058 61.042 38.4236 61.624 37.5831 61.4994C36.7426 61.3748 36.162 60.5908 36.2863 59.7483C36.5492 57.9662 37.1983 56.2634 38.188 54.7597C39.1776 53.2559 40.4838 51.9877 42.0147 51.0441C43.5456 50.1004 45.2641 49.5043 47.0495 49.2977Z" fill="url(#paint4_linear_31_192)" stroke="#1D1737" stroke-linecap="round" stroke-linejoin="round"/>
<path d="M83.384 67.2665C84.5968 59.818 83.4078 52.176 79.9898 45.4515L75.843 47.5693C78.8114 53.4094 79.844 60.0463 78.7908 66.515L83.384 67.2665Z" fill="url(#paint5_linear_31_192)"/>
<path fill-rule="evenodd" clip-rule="evenodd" d="M48.4615 30.7107C48.2755 30.7107 48.0896 30.7124 47.9038 30.7157L47.8202 26.0901C48.0338 26.0862 48.2476 26.0843 48.4615 26.0843C48.6754 26.0843 48.8892 26.0862 49.1028 26.0901L49.0192 30.7157C48.8334 30.7124 48.6475 30.7107 48.4615 30.7107ZM53.8249 31.1829C53.4589 31.1179 53.0917 31.0596 52.7233 31.008L53.3626 26.4262C53.7862 26.4855 54.2085 26.5526 54.6294 26.6273L53.8249 31.1829ZM44.1997 31.008C43.8314 31.0596 43.4641 31.1179 43.0982 31.1829L42.2936 26.6273C42.7145 26.5526 43.1368 26.4855 43.5604 26.4262L44.1997 31.008ZM39.4852 32.0523C39.1297 32.161 38.7761 32.2762 38.4245 32.3978L36.919 28.0244C37.3233 27.8846 37.73 27.7521 38.1388 27.6272L39.4852 32.0523ZM58.4985 32.3978C58.1469 32.2762 57.7933 32.161 57.4378 32.0523L58.7843 27.6272C59.1931 27.7521 59.5997 27.8846 60.0041 28.0244L58.4985 32.3978ZM34.9918 33.8231C34.8247 33.9046 34.6583 33.9877 34.4926 34.0723C34.3269 34.157 34.162 34.2431 33.998 34.3306L31.8285 30.2472C32.0171 30.1465 32.2067 30.0475 32.3972 29.9502C32.5878 29.8528 32.7792 29.7573 32.9713 29.6635L34.9918 33.8231ZM62.4305 34.0723C62.2647 33.9877 62.0983 33.9046 61.9313 33.8231L63.9517 29.6635C64.1438 29.7573 64.3352 29.8528 64.5258 29.9502C64.7164 30.0475 64.906 30.1465 65.0946 30.2472L62.9251 34.3306C62.7611 34.2431 62.5962 34.157 62.4305 34.0723ZM30.8299 36.2766C30.5251 36.4903 30.2243 36.7093 29.9276 36.9338L27.1476 33.2408C27.4887 32.9828 27.8347 32.7308 28.1852 32.4851L30.8299 36.2766ZM66.9954 36.9338C66.6987 36.7093 66.3979 36.4903 66.0931 36.2766L68.7379 32.4851C69.0884 32.7308 69.4343 32.9828 69.7755 33.2408L66.9954 36.9338ZM27.1023 39.3526C26.8348 39.6112 26.5718 39.8748 26.3137 40.1431L22.9915 36.9316C23.2884 36.623 23.5907 36.3199 23.8984 36.0225L27.1023 39.3526ZM70.6094 40.1431C70.3512 39.8748 70.0883 39.6112 69.8208 39.3526L73.0246 36.0225C73.3323 36.3199 73.6347 36.623 73.9316 36.9316L70.6094 40.1431ZM23.9006 42.9752C23.7887 43.1239 23.678 43.2736 23.5687 43.4245C23.4594 43.5753 23.3515 43.7271 23.245 43.8797L19.4625 41.2286C19.5849 41.0531 19.709 40.8786 19.8348 40.7051C19.9605 40.5317 20.0877 40.3595 20.2164 40.1885L23.9006 42.9752ZM73.3543 43.4245C73.245 43.2736 73.1344 43.1239 73.0225 42.9752L76.7066 40.1885C76.8353 40.3595 76.9625 40.5317 77.0883 40.7051C77.214 40.8786 77.3381 41.0531 77.4605 41.2286L73.6781 43.8797C73.5716 43.7271 73.4637 43.5753 73.3543 43.4245ZM21.3036 47.0553C21.1288 47.3844 20.96 47.7164 20.7973 48.0514L16.6476 46.0261C16.8347 45.6409 17.0289 45.259 17.2299 44.8806L21.3036 47.0553ZM76.1258 48.0514C75.9631 47.7164 75.7943 47.3844 75.6194 47.0553L79.6931 44.8806C79.8942 45.259 80.0883 45.6409 80.2754 46.0261L76.1258 48.0514ZM19.3754 51.4924C19.2541 51.8445 19.1392 52.199 19.0307 52.5556L14.6161 51.2059C14.7409 50.7958 14.873 50.3882 15.0125 49.9832L19.3754 51.4924ZM77.8923 52.5556C77.7838 52.199 77.6689 51.8445 77.5477 51.4924L81.9106 49.9832C82.05 50.3882 82.1822 50.7958 82.3069 51.2059L77.8923 52.5556ZM18.1633 56.1771C18.131 56.3605 18.1002 56.5443 18.0711 56.7285C18.042 56.9126 18.0146 57.0969 17.9889 57.2814L13.418 56.6406C13.4476 56.4285 13.4791 56.2165 13.5126 56.0047C13.546 55.793 13.5814 55.5816 13.6186 55.3707L18.1633 56.1771ZM78.8519 56.7285C78.8228 56.5443 78.7921 56.3605 78.7597 56.1771L83.3044 55.3707C83.3417 55.5816 83.377 55.793 83.4105 56.0047C83.4439 56.2165 83.4755 56.4285 83.5051 56.6406L78.9342 57.2814C78.9084 57.0969 78.881 56.9126 78.8519 56.7285ZM17.6973 60.9943C17.6906 61.3671 17.6906 61.7398 17.6973 62.1123L13.0827 62.1961C13.075 61.7678 13.075 61.3392 13.0827 60.9105L17.6973 60.9943ZM79.2257 62.1123C79.2324 61.7398 79.2324 61.3671 79.2257 60.9943L83.8403 60.9105C83.8481 61.3392 83.8481 61.7678 83.8403 62.1961L79.2257 62.1123ZM17.9889 65.8253C18.0403 66.1942 18.0985 66.5623 18.1633 66.9294L13.6186 67.7359C13.544 67.3137 13.4772 66.8903 13.418 66.466L17.9889 65.8253ZM78.7597 66.9294C78.8245 66.5623 78.8827 66.1942 78.9342 65.8253L83.5051 66.466C83.4459 66.8903 83.379 67.3137 83.3044 67.7359L78.7597 66.9294Z" fill="#1D1737"/>
<path d="M86.4497 55.5222C87.3992 61.5314 86.9164 67.6806 85.0407 73.4669L81.3818 72.2752C82.4367 67.5441 82.5942 62.645 81.8343 57.8354C80.8848 51.8262 78.5299 46.1276 74.9623 41.2054C71.3947 36.2833 66.7155 32.2774 61.3074 29.5153C55.8994 26.7531 49.9159 25.3132 43.8463 25.3132C38.7365 25.3132 33.6879 26.3337 28.9922 28.3044C29.6495 27.9177 30.3192 27.55 31.0005 27.2021C36.4086 24.4399 42.392 23 48.4617 23C54.5313 23 60.5147 24.4399 65.9228 27.2021C71.3309 29.9642 76.01 33.9701 79.5777 38.8922C83.1453 43.8144 85.5002 49.513 86.4497 55.5222Z" fill="#1D1737" fill-opacity="0.1"/>
<path d="M50.2769 68.8911C47.9333 69.896 44.4515 68.5289 43.449 66.1797C43.449 63.5891 43.4257 59.0884 45.7693 58.0835C47.5466 57.3214 69.9533 50.9536 78.1657 48.8307L78.1657 50.7584C78.1657 50.7584 52.6204 67.8862 50.2769 68.8911Z" fill="#1D1737" fill-opacity="0.1"/>
<path d="M50.2767 65.8068C47.9331 66.8117 45.2205 65.722 44.218 63.3728C43.2155 61.0236 44.3027 58.3046 46.6463 57.2997C48.9898 56.2948 78.1656 48.8165 78.1656 48.8165C78.1656 48.8165 52.6203 64.8019 50.2767 65.8068Z" fill="#FBFBFB" stroke="#1D1737" stroke-linejoin="round"/>
<path d="M57.3076 64.6375L78.0768 50.7584V53.4571L60.3845 65.7941L57.3076 64.6375Z" fill="#1D1737" fill-opacity="0.1"/>
<defs>
<linearGradient id="paint0_linear_31_192" x1="6.66675" y1="6.66669" x2="89.3334" y2="6.66669" gradientUnits="userSpaceOnUse">
<stop stop-color="#FACF1A"/>
<stop offset="0.142857" stop-color="#FFBE1C"/>
<stop offset="0.285714" stop-color="#FFAC26"/>
<stop offset="0.428571" stop-color="#FF9B31"/>
<stop offset="0.571429" stop-color="#FF893C"/>
<stop offset="0.714286" stop-color="#FF7848"/>
<stop offset="0.857143" stop-color="#FF6853"/>
<stop offset="1" stop-color="#FF595E"/>
</linearGradient>
<linearGradient id="paint1_linear_31_192" x1="77.3333" y1="70.6667" x2="93.3333" y2="70.6667" gradientUnits="userSpaceOnUse">
<stop stop-color="#FACF1A"/>
<stop offset="0.142857" stop-color="#FFBE1C"/>
<stop offset="0.285714" stop-color="#FFAC26"/>
<stop offset="0.428571" stop-color="#FF9B31"/>
<stop offset="0.571429" stop-color="#FF893C"/>
<stop offset="0.714286" stop-color="#FF7848"/>
<stop offset="0.857143" stop-color="#FF6853"/>
<stop offset="1" stop-color="#FF595E"/>
</linearGradient>
<linearGradient id="paint2_linear_31_192" x1="20.7693" y1="33.7949" x2="70.9113" y2="33.7949" gradientUnits="userSpaceOnUse">
<stop stop-color="#FACF1A"/>
<stop offset="0.142857" stop-color="#FFBE1C"/>
<stop offset="0.285714" stop-color="#FFAC26"/>
<stop offset="0.428571" stop-color="#FF9B31"/>
<stop offset="0.571429" stop-color="#FF893C"/>
<stop offset="0.714286" stop-color="#FF7848"/>
<stop offset="0.857143" stop-color="#FF6853"/>
<stop offset="1" stop-color="#FF595E"/>
</linearGradient>
<linearGradient id="paint3_linear_31_192" x1="28.4614" y1="41.5056" x2="63.0542" y2="41.5056" gradientUnits="userSpaceOnUse">
<stop stop-color="#FACF1A"/>
<stop offset="0.142857" stop-color="#FFBE1C"/>
<stop offset="0.285714" stop-color="#FFAC26"/>
<stop offset="0.428571" stop-color="#FF9B31"/>
<stop offset="0.571429" stop-color="#FF893C"/>
<stop offset="0.714286" stop-color="#FF7848"/>
<stop offset="0.857143" stop-color="#FF6853"/>
<stop offset="1" stop-color="#FF595E"/>
</linearGradient>
<linearGradient id="paint4_linear_31_192" x1="36.2695" y1="49.2162" x2="53.4018" y2="49.2162" gradientUnits="userSpaceOnUse">
<stop stop-color="#FACF1A"/>
<stop offset="0.142857" stop-color="#FFBE1C"/>
<stop offset="0.285714" stop-color="#FFAC26"/>
<stop offset="0.428571" stop-color="#FF9B31"/>
<stop offset="0.571429" stop-color="#FF893C"/>
<stop offset="0.714286" stop-color="#FF7848"/>
<stop offset="0.857143" stop-color="#FF6853"/>
<stop offset="1" stop-color="#FF595E"/>
</linearGradient>
<linearGradient id="paint5_linear_31_192" x1="75.843" y1="45.4515" x2="83.8461" y2="45.4515" gradientUnits="userSpaceOnUse">
<stop stop-color="#FACF1A"/>
<stop offset="0.142857" stop-color="#FFBE1C"/>
<stop offset="0.285714" stop-color="#FFAC26"/>
<stop offset="0.428571" stop-color="#FF9B31"/>
<stop offset="0.571429" stop-color="#FF893C"/>
<stop offset="0.714286" stop-color="#FF7848"/>
<stop offset="0.857143" stop-color="#FF6853"/>
<stop offset="1" stop-color="#FF595E"/>
</linearGradient>
</defs>
</svg>
